<?xml version="1.0" encoding="UTF-8" standalone="no"?>
<svg
   xmlns:dc="http://purl.org/dc/elements/1.1/"
   xmlns:cc="http://creativecommons.org/ns#"
   xmlns:rdf="http://www.w3.org/1999/02/22-rdf-syntax-ns#"
   xmlns:svg="http://www.w3.org/2000/svg"
   xmlns="http://www.w3.org/2000/svg"
   xmlns:sodipodi="http://sodipodi.sourceforge.net/DTD/sodipodi-0.dtd"
   xmlns:inkscape="http://www.inkscape.org/namespaces/inkscape"
   sodipodi:docname="ops-construction.svg"
   inkscape:version="0.91 r13725"
   id="svg2"
   viewBox="0 0 225.77779 225.77778"
   height="800"
   width="800"
   y="0mm"
   x="0mm"
   version="1.2">
  <metadata
     id="metadata32">
    <rdf:RDF>
      <cc:Work
         rdf:about="">
        <dc:format>image/svg+xml</dc:format>
        <dc:type
           rdf:resource="http://purl.org/dc/dcmitype/StillImage" />
        <dc:title></dc:title>
      </cc:Work>
    </rdf:RDF>
  </metadata>
  <defs
     id="defs30">
    <filter
       style="color-interpolation-filters:sRGB;"
       inkscape:label="Drop Shadow"
       id="filter5429">
      <feFlood
         flood-opacity="0.498039"
         flood-color="rgb(0,0,0)"
         result="flood"
         id="feFlood5431" />
      <feComposite
         in="flood"
         in2="SourceGraphic"
         operator="in"
         result="composite1"
         id="feComposite5433" />
      <feGaussianBlur
         in="composite1"
         stdDeviation="8.5"
         result="blur"
         id="feGaussianBlur5435" />
      <feOffset
         dx="4.57967e-15"
         dy="4.78723"
         result="offset"
         id="feOffset5437" />
      <feComposite
         in="SourceGraphic"
         in2="offset"
         operator="over"
         result="composite2"
         id="feComposite5439" />
    </filter>
  </defs>
  <sodipodi:namedview
     showborder="true"
     inkscape:current-layer="svg2"
     inkscape:window-maximized="0"
     inkscape:window-y="0"
     inkscape:window-x="0"
     inkscape:cy="345.09407"
     inkscape:cx="242.91029"
     inkscape:zoom="0.45080039"
     units="px"
     showgrid="false"
     id="namedview28"
     inkscape:window-height="744"
     inkscape:window-width="1063"
     inkscape:pageshadow="2"
     inkscape:pageopacity="0"
     guidetolerance="10"
     gridtolerance="10"
     objecttolerance="10"
     borderopacity="1"
     bordercolor="#666666"
     pagecolor="#ffffff" />
  <style
     type="text/css"
     id="style4"><![CDATA[
text { font:12px Dialog; }
]]></style>
  <g
     id="g5801"
     transform="translate(-70.117261,-19.469062)">
    <g
       style="filter:url(#filter5429)"
       transform="translate(70.117261,20.033503)"
       id="g5245">
      <path
         style="opacity:1;fill:#ebebeb;fill-opacity:1;stroke:none"
         d="M 400,32.142578 97.015625,207.07227 l 0,349.85546 L 400,731.85742 702.98438,556.92773 l 0,-349.85546 L 400,32.142578 Z"
         id="path5239"
         transform="scale(0.28222222,0.28222222)"
         inkscape:connector-curvature="0" />
    </g>
    <path
       d="m 183.00615,29.105102 85.50901,49.36865 0,98.737298 -85.50901,-49.36865 0,-98.737298"
       style="opacity:1;fill:#dddddd;fill-opacity:1;stroke:none"
       id="path10"
       inkscape:connector-curvature="0" />
    <path
       d="M 183.00615,226.5797 97.497141,177.21105 183.00615,127.8424 268.51516,177.21105 183.00615,226.5797"
       style="opacity:1;fill:#cecece;fill-opacity:1;stroke:none"
       id="path12"
       inkscape:connector-curvature="0" />
    <path
       id="path20"
       d="m 183.00615,75.511666 -45.31982,26.165084 0,52.33128 45.31982,26.16509 45.31982,-26.16509 0,-52.33128 -45.31982,-26.165084 z m 0,22.709519 25.65246,14.810605 0,29.62121 -25.65246,14.8106 -25.65246,-14.8106 0,-29.62121 25.65246,-14.810605 z"
       style="opacity:1;fill:#243959;fill-opacity:1;stroke:none"
       inkscape:connector-curvature="0" />
    <path
       id="path14"
       d="m 183.00615,38.978772 -45.31982,26.165639 -8.551,-4.937235 -31.638104,18.324048 0,36.475566 8.551004,4.93669 0,52.33072 43.0014,24.82674 33.95652,19.60507 27.36288,-15.79783 -47.88022,-27.644 -29.0777,-16.78781 0,-57.267958 49.59504,-28.633431 28.20017,16.281248 48.75775,28.150561 0,-31.596209 L 224.6455,63.019475 183.00615,38.978772 Z"
       style="opacity:1;fill:#1a839d;fill-opacity:1;stroke:none"
       inkscape:connector-curvature="0" />
  </g>
</svg>
