<?xml version="1.0" encoding="UTF-8" standalone="no"?>
<svg
   xmlns:dc="http://purl.org/dc/elements/1.1/"
   xmlns:cc="http://creativecommons.org/ns#"
   xmlns:rdf="http://www.w3.org/1999/02/22-rdf-syntax-ns#"
   xmlns:svg="http://www.w3.org/2000/svg"
   xmlns="http://www.w3.org/2000/svg"
   xmlns:sodipodi="http://sodipodi.sourceforge.net/DTD/sodipodi-0.dtd"
   xmlns:inkscape="http://www.inkscape.org/namespaces/inkscape"
   version="1.2"
   x="0mm"
   y="0mm"
   width="87.8093806mm"
   height="77.5538336mm"
   viewBox="0 0 87.8093806 77.5538336"
   id="svg3464"
   inkscape:version="0.91 r13725"
   sodipodi:docname="ops-construction.svg">
  <metadata
     id="metadata3496">
    <rdf:RDF>
      <cc:Work
         rdf:about="">
        <dc:format>image/svg+xml</dc:format>
        <dc:type
           rdf:resource="http://purl.org/dc/dcmitype/StillImage" />
      </cc:Work>
    </rdf:RDF>
  </metadata>
  <defs
     id="defs3494" />
  <sodipodi:namedview
     pagecolor="#ffffff"
     bordercolor="#666666"
     borderopacity="1"
     objecttolerance="10"
     gridtolerance="10"
     guidetolerance="10"
     inkscape:pageopacity="0"
     inkscape:pageshadow="2"
     inkscape:window-width="1587"
     inkscape:window-height="1354"
     id="namedview3492"
     showgrid="false"
     inkscape:zoom="4.4614744"
     inkscape:cx="132.03298"
     inkscape:cy="137.39852"
     inkscape:window-x="970"
     inkscape:window-y="0"
     inkscape:window-maximized="0"
     inkscape:current-layer="g3468" />
  <style
     type="text/css"
     id="style3466"><![CDATA[
text { font:12px Dialog; }
]]></style>
  <g
     transform="matrix(1.0 0.0 0.0 1.0 -24.396873120865905 -18.053833605220227) "
     id="g3468">
    <path
       d="M47.5953945,21.0747187 L87.5284522,21.0747187 L107.4949811,55.6577612 L87.5284522,90.2408036 L47.5953945,90.2408036 L27.6288657,55.6577612 L47.5953945,21.0747187"
       style="fill:#ffffff;opacity:0.50196078;stroke:none;fill-opacity:1"
       id="path3472" />
    <path
       d="M47.5953945,21.0747187 L67.5619234,55.6577612 L47.5953945,90.2408036 L27.6288657,55.6577612 L47.5953945,21.0747187"
       style="fill:#ebebeb;opacity:1;stroke:none;fill-opacity:1"
       id="path3470" />
    <path
       d="M47.5953945,21.0747187 L87.5284522,21.0747187 L107.4949811,55.6577612 L67.5619234,55.6577612 L47.5953945,21.0747187"
       style="fill:#cccccc;opacity:1;stroke:none;fill-opacity:1"
       id="path3474" />
    <path
       d="M87.5284522,90.2408036 L47.5953945,90.2408036 L67.5619234,55.6577612 L107.4949811,55.6577612 L87.5284522,90.2408036"
       style="fill:#cecece;opacity:1;stroke:none;fill-opacity:1"
       id="path3476" />
    <path
       d="M77.5451878,38.3662399 L87.5284522,55.6577612 L77.5451878,72.9492824 L57.5786589,72.9492824 L47.5953945,55.6577612 L57.5786589,38.3662399 L77.5451878,38.3662399"
       style="fill:#243959;opacity:0.50196078;stroke:none;fill-opacity:1"
       id="path3482" />
    <path
       d="M73.7515473,44.937018 L79.9411713,55.6577612 L73.7515473,66.3785043 L61.3722994,66.3785043 L55.1826755,55.6577612 L61.3722994,44.937018 L73.7515473,44.937018"
       style="fill:rgb(181,181,181);opacity:0.5019607843137255;stroke:none"
       id="path3484" />
    <path
       d="M88.5267787,36.6370878 L56.5803325,36.6370878 L51.5887003,27.9913272 L83.5351465,27.9913272 L88.5267787,36.6370878"
       style="fill:#1a839d;opacity:0.50196078;stroke:none;fill-opacity:1"
       id="path3488" />
    <path
       d="M88.5267787,74.6784345 L56.5803325,74.6784345 L51.5887003,83.3241951 L83.5351465,83.3241951 L88.5267787,74.6784345"
       style="fill:#1a839d;opacity:0.50196078;stroke:none;fill-opacity:1"
       id="path3490" />
    <path
       d="M33.6188243,45.2828484 L41.6054359,45.2828484 L41.6054359,66.0326739 L33.6188243,66.0326739 L27.6288657,55.6577612 L33.6188243,45.2828484"
       style="fill:#1a839d;opacity:0.5;stroke:none;fill-opacity:1"
       id="path3486" />
    <path
       d="M51.5887003,27.9913272 L83.5351465,27.9913272 L99.5083695,55.6577612 L83.5351465,83.3241951 L51.5887003,83.3241951 L35.6154772,55.6577612 L51.5887003,27.9913272"
       style="fill:#1a839d;opacity:0.5;stroke:none;fill-opacity:1"
       id="path3478" />
    <path
       d="M78.5435142,36.6370878 L56.5803325,36.6370878 L45.5987416,55.6577612 L56.5803325,74.6784345 L78.5435142,74.6784345 L89.5251051,55.6577612 L78.5435142,36.6370878"
       style="fill:rgb(181, 181, 181);opacity:1;stroke:none"
       id="path3480" />
  </g>
</svg>
